<?xml version="1.0" standalone="no"?>
<!DOCTYPE svg PUBLIC "-//W3C//DTD SVG 20010904//EN"
 "http://www.w3.org/TR/2001/REC-SVG-20010904/DTD/svg10.dtd">
<svg version="1.0" xmlns="http://www.w3.org/2000/svg"
 width="999.000000pt" height="999.000000pt" viewBox="0 0 999.000000 999.000000"
 preserveAspectRatio="xMidYMid meet">
<metadata>
Created by potrace 1.14, written by Peter Selinger 2001-2017
</metadata>
<g transform="translate(0.000000,999.000000) scale(0.100000,-0.100000)"
fill="#000000" stroke="none">
<path d="M3577 9984 c-1 -1 -40 -4 -87 -8 -325 -22 -623 -105 -915 -254 -94
-48 -114 -59 -235 -137 -410 -263 -746 -674 -934 -1142 -125 -312 -182 -613
-179 -958 0 -71 1 -1785 2 -3808 l1 -3677 167 2 167 3 0 1227 c0 676 2 1228 5
1228 3 0 39 -35 81 -79 41 -43 158 -165 260 -271 102 -106 212 -220 244 -254
32 -33 113 -117 180 -186 256 -266 547 -568 603 -626 32 -34 149 -156 260
-270 111 -115 225 -234 254 -264 28 -30 147 -153 263 -274 116 -120 214 -222
217 -227 7 -11 2561 -6 2624 5 22 4 69 11 105 16 275 41 551 139 807 286 785
453 1297 1318 1287 2174 -1 63 -2 1777 -3 3808 l-1 3692 -167 -2 -167 -3 0
-1222 c0 -673 -2 -1223 -4 -1223 -2 0 -24 21 -49 48 -25 26 -152 157 -282 291
-130 134 -267 276 -306 316 -167 173 -537 556 -618 639 -49 50 -171 177 -272
281 -101 105 -221 229 -267 276 -45 47 -186 193 -313 324 -126 131 -239 246
-249 257 -18 16 -40 18 -244 18 l-223 0 133 -136 c183 -188 534 -548 929 -954
56 -58 233 -240 393 -404 160 -165 327 -336 371 -381 44 -46 206 -212 360
-370 272 -279 420 -432 478 -493 l28 -29 -88 -73 c-48 -41 -95 -81 -104 -89
-9 -9 -38 -34 -64 -56 -27 -22 -53 -45 -59 -50 -6 -6 -56 -48 -111 -95 -55
-46 -116 -99 -135 -116 -19 -17 -100 -87 -180 -155 -80 -68 -156 -133 -170
-145 -14 -12 -128 -111 -255 -219 -258 -222 -256 -220 -525 -450 -107 -92
-209 -179 -225 -194 -17 -14 -74 -64 -128 -109 -53 -46 -97 -86 -97 -88 0 -2
94 -4 209 -4 l209 0 189 162 c103 89 206 178 229 197 22 20 53 47 70 61 47 39
168 144 174 150 3 3 34 30 70 60 36 30 67 57 70 60 3 3 68 59 145 125 77 65
147 126 156 135 9 8 40 35 70 60 29 25 121 104 204 175 84 72 178 153 210 180
32 28 63 55 69 60 29 28 194 165 197 165 3 0 5 -720 5 -1600 0 -880 -3 -1600
-7 -1600 -4 0 -18 17 -30 38 -60 100 -206 280 -319 392 -225 226 -452 378
-758 509 -163 70 -371 134 -502 156 -19 3 -42 8 -50 10 -116 32 -525 49 -740
31 -109 -9 -146 -14 -230 -31 -14 -3 -43 -8 -65 -11 -22 -4 -94 -22 -160 -41
-475 -137 -852 -388 -1205 -802 l-54 -63 49 -45 c73 -66 112 -101 195 -173 41
-36 91 -79 110 -97 19 -17 46 -41 60 -53 69 -60 328 -288 395 -349 22 -20 94
-84 160 -141 66 -58 125 -109 131 -115 20 -18 148 -131 249 -220 55 -48 118
-104 140 -124 22 -20 76 -68 120 -106 44 -39 82 -72 85 -75 3 -3 39 -35 80
-70 41 -36 82 -72 90 -80 8 -9 107 -96 220 -195 113 -98 207 -182 210 -185 3
-3 79 -70 170 -150 91 -80 181 -159 200 -176 19 -17 116 -103 215 -190 99 -87
185 -163 191 -169 6 -5 93 -82 193 -170 l182 -160 -38 -35 c-223 -202 -473
-364 -702 -455 -124 -49 -318 -99 -431 -111 -30 -3 -66 -8 -80 -11 -14 -4
-555 -8 -1203 -10 l-1178 -4 -45 48 c-42 44 -402 416 -700 723 -73 74 -160
164 -194 200 -34 36 -175 182 -314 324 -138 142 -273 282 -301 311 -27 28
-144 149 -260 269 -115 120 -264 273 -330 341 -66 68 -153 157 -193 199 l-74
75 114 97 c118 101 156 134 223 193 22 20 67 59 100 87 33 28 164 141 291 250
127 110 257 222 289 249 32 28 63 55 69 60 6 6 43 37 81 70 39 33 75 64 81 70
6 5 36 31 65 56 193 166 237 204 264 228 17 14 80 68 140 120 98 84 141 121
250 216 17 14 62 54 102 88 40 33 70 63 68 65 -3 4 -350 6 -405 3 -8 -1 -29
-13 -45 -29 -17 -15 -77 -67 -135 -117 -92 -79 -145 -125 -184 -160 -6 -6 -56
-48 -111 -95 -141 -120 -155 -133 -179 -155 -12 -11 -114 -100 -227 -197 -113
-97 -212 -182 -220 -190 -8 -7 -43 -38 -79 -68 -36 -30 -67 -57 -70 -60 -3 -3
-52 -46 -110 -95 -58 -50 -107 -92 -110 -95 -3 -3 -52 -46 -110 -95 -58 -50
-110 -94 -116 -100 -54 -49 -149 -131 -158 -137 -9 -5 -12 381 -12 1557 0
1286 2 1562 13 1553 7 -6 13 -15 13 -20 0 -5 23 -44 52 -86 330 -492 775 -821
1327 -982 88 -26 89 -26 216 -50 177 -33 303 -44 505 -43 173 0 384 19 480 43
19 5 51 11 70 14 67 10 275 74 365 112 336 141 586 307 831 549 208 206 344
395 478 665 137 276 222 565 254 865 9 79 9 473 0 555 -42 390 -175 757 -398
1099 -108 165 -178 251 -329 401 -411 410 -943 658 -1513 706 -76 6 -346 13
-351 8z m303 -298 c138 -14 234 -30 350 -61 503 -135 963 -476 1255 -930 58
-89 163 -288 199 -375 37 -89 95 -280 115 -377 20 -97 23 -121 40 -258 9 -71
7 -429 -2 -475 -3 -14 -8 -45 -11 -70 -18 -142 -74 -353 -133 -500 -38 -94
-125 -270 -154 -312 -11 -14 -19 -29 -19 -32 0 -8 -106 -162 -149 -216 -134
-167 -291 -315 -479 -448 -39 -29 -74 -52 -77 -52 -2 0 -28 -15 -57 -34 -169
-107 -493 -230 -667 -252 -20 -2 -43 -6 -51 -9 -8 -2 -42 -7 -75 -11 -33 -3
-73 -8 -90 -10 -42 -5 -332 -5 -380 0 -123 13 -172 21 -321 52 -84 17 -289 92
-402 148 -198 96 -399 241 -562 405 -127 127 -141 143 -216 246 -189 258 -326
568 -389 880 -33 161 -39 237 -39 490 0 249 4 291 48 510 15 73 62 225 98 315
34 86 124 273 148 310 10 14 41 63 71 110 79 123 159 222 273 336 125 126 197
186 340 282 288 195 633 314 980 338 50 4 92 7 93 8 5 4 202 -3 263 -8z m2610
-5070 c47 -4 94 -9 105 -11 11 -3 37 -7 58 -10 290 -40 587 -155 862 -334 22
-14 45 -29 50 -34 133 -101 174 -136 269 -232 289 -294 475 -660 552 -1085 2
-14 6 -34 9 -45 18 -86 26 -515 12 -643 -6 -52 -20 -125 -51 -277 -7 -33 -71
-227 -88 -265 -44 -101 -95 -200 -143 -281 -59 -98 -184 -269 -197 -269 -7 0
-369 315 -476 414 -12 12 -30 28 -40 37 -9 9 -42 38 -72 64 -30 26 -89 78
-130 115 -102 91 -468 416 -505 449 -17 14 -73 64 -125 111 -53 47 -129 114
-169 150 -40 36 -79 70 -85 75 -38 34 -193 172 -202 180 -6 6 -42 37 -80 70
-38 33 -78 69 -90 80 -11 11 -54 49 -95 85 -41 36 -79 69 -85 75 -6 5 -41 37
-79 70 -37 33 -75 67 -84 75 -9 9 -54 49 -101 90 -47 41 -90 80 -96 85 -6 6
-37 33 -70 62 -32 28 -73 64 -89 80 -33 30 -155 138 -219 194 -22 19 -49 43
-61 54 -11 11 -52 47 -90 80 -38 33 -92 81 -119 107 l-51 47 30 31 c60 64 253
220 365 296 163 110 351 197 525 243 107 28 317 60 435 67 58 4 106 7 107 8 5
4 240 -2 313 -8z"/>
</g>
</svg>
